<svg xmlns="http://www.w3.org/2000/svg" width="43.926" height="46.15" viewBox="0 0 43.926 46.15">
  <g id="up-arrow-sign" transform="translate(43.926 46.15) rotate(180)">
    <g id="Group_2" data-name="Group 2" transform="translate(0)">
      <path id="Path_2" data-name="Path 2" d="M76.828,46.15S79.2,45.111,79.2,43.841V8.352l15.479,16.9a2.426,2.426,0,0,0,1.777.77,2.5,2.5,0,0,0,1.579-.577,2.274,2.274,0,0,0,.2-3.272L78.6.77A2.363,2.363,0,0,0,76.828,0a2.043,2.043,0,0,0-.513.077A2.362,2.362,0,0,0,74.893,1L55.505,22.17a2.274,2.274,0,0,0,.2,3.272,2.418,2.418,0,0,0,3.356-.192l15.4-16.858v35.45C74.458,45.111,76.828,46.15,76.828,46.15Z" transform="translate(-54.904 0)" fill="#2f2f2f"/>
    </g>
  </g>
</svg>
