<svg xmlns="http://www.w3.org/2000/svg" width="114.51" height="106.28" viewBox="0 0 114.51 106.28">
  <g id="face_rect" transform="translate(-1454.745 -224.157)">
    <path id="Polygon_3" data-name="Polygon 3" d="M51,0l51,88H0Z" transform="translate(1569.255 314.48) rotate(171)" fill="#ffe2e5"/>
    <path id="Path_4" data-name="Path 4" d="M1007.139,338.195c12.657,4.314,30.248,3.583,30.248,3.583" transform="matrix(0.695, -0.719, 0.719, 0.695, 527.536, 744.419)" fill="none" stroke="#000" stroke-width="6"/>
    <path id="Path_5" data-name="Path 5" d="M1007.139,347.5a23.984,23.984,0,0,1,21.115-9.185" transform="translate(504.746 -111)" fill="none" stroke="#000" stroke-width="6"/>
    <ellipse id="Ellipse_6" data-name="Ellipse 6" cx="3.5" cy="3" rx="3.5" ry="3" transform="translate(1483 251)"/>
    <path id="Path_6" data-name="Path 6" d="M1114.549,277.643l10.715,15.5-13.022,11.474" transform="matrix(0.899, -0.438, 0.438, 0.899, 382.655, 499.893)" fill="none" stroke="#000" stroke-width="6"/>
    <path id="Path_7" data-name="Path 7" d="M1007.139,353.768c14.558-18.506,34.792-15.373,34.792-15.373" transform="matrix(-0.999, 0.052, -0.052, -0.999, 2562.374, 589.164)" fill="none" stroke="#000" stroke-width="6"/>
    <ellipse id="Ellipse_7" data-name="Ellipse 7" cx="3.5" cy="3" rx="3.5" ry="3" transform="translate(1521 237)"/>
  </g>
</svg>
